HIERARCHY
ROOT Hips
{
	OFFSET 0.00 0.00 0.00
	CHANNELS 6 Xposition Yposition Zposition Xrotation Yrotation Zrotation
	JOINT Spine
	{
		OFFSET 0.00000 5.89385 0.00000
		CHANNELS 3 Xrotation Yrotation Zrotation
		JOINT Head
		{
			OFFSET 0.00000 16.44715 0.00000
			CHANNELS 3 Xrotation Yrotation Zrotation
			End Site
			{
				OFFSET 0.00000 4.52755 0.00000
			}
		}
		JOINT LeftShoulder
		{
			OFFSET 0.00000 10.90038 0.00000
			CHANNELS 3 Xrotation Yrotation Zrotation
			JOINT LeftArm
			{
				OFFSET 8.21946 0.00000 0.00000
				CHANNELS 3 Xrotation Yrotation Zrotation
				JOINT LeftForeArm
				{
					OFFSET 11.09494 0.00000 0.00000
					CHANNELS 3 Yrotation Zrotation Xrotation
					JOINT LeftHand
					{
						OFFSET 9.10388 0.00000 0.00000
						CHANNELS 3 Xrotation Yrotation Zrotation
						JOINT LeftHandThumb1
						{
							OFFSET 0.00000 0.00000 0.00000
							CHANNELS 3 Xrotation Zrotation Yrotation
							End Site
							{
								OFFSET 0.00000 0.00000 3.93700
							}
						}
						End Site
						{
							OFFSET 3.93700 0.00000 0.00000
						}
					}
				}
			}
		}
		JOINT RightShoulder
		{
			OFFSET 0.00000 10.90038 0.00000
			CHANNELS 3 Xrotation Yrotation Zrotation
			JOINT RightArm
			{
				OFFSET -8.21946 0.00000 0.00000
				CHANNELS 3 Xrotation Yrotation Zrotation
				JOINT RightForeArm
				{
					OFFSET -11.09494 0.00000 0.00000
					CHANNELS 3 Yrotation Zrotation Xrotation
					JOINT RightHand
					{
						OFFSET -9.10388 0.00000 0.00000
						CHANNELS 3 Xrotation Yrotation Zrotation
						JOINT RightHandThumb1
						{
							OFFSET 0.00000 0.00000 0.00000
							CHANNELS 3 Xrotation Zrotation Yrotation
							End Site
							{
								OFFSET 0.00000 0.00000 3.93700
							}
						}
						End Site
						{
							OFFSET -3.93700 0.00000 0.00000
						}
					}
				}
			}
		}
	}
	JOINT LeftUpLeg
	{
		OFFSET 3.69794 0.00000 0.00000
		CHANNELS 3 Xrotation Yrotation Zrotation
		JOINT LeftLeg
		{
			OFFSET 0.00000 -16.18147 0.00000
			CHANNELS 3 Xrotation Yrotation Zrotation
			JOINT LeftFoot
			{
				OFFSET 0.00000 -16.50139 0.00000
				CHANNELS 3 Xrotation Yrotation Zrotation
				JOINT LeftToeBase
				{
					OFFSET 0.00000 -1.65857 6.18989
					CHANNELS 3 Xrotation Yrotation Zrotation
					End Site
					{
						OFFSET 0.00000 0.00000 2.95275
					}
				}
			}
		}
	}
	JOINT RightUpLeg
	{
		OFFSET -3.69794 0.00000 0.00000
		CHANNELS 3 Xrotation Yrotation Zrotation
		JOINT RightLeg
		{
			OFFSET 0.00000 -16.18147 0.00000
			CHANNELS 3 Xrotation Yrotation Zrotation
			JOINT RightFoot
			{
				OFFSET 0.00000 -16.50139 0.00000
				CHANNELS 3 Xrotation Yrotation Zrotation
				JOINT RightToeBase
				{
					OFFSET 0.00000 -1.65857 6.18989
					CHANNELS 3 Xrotation Yrotation Zrotation
					End Site
					{
						OFFSET 0.00000 0.00000 2.95275
					}
				}
			}
		}
	}
}
MOTION
Frames: 21
Frame Time: 0.008333
 4.4582 35.8702 -0.6419 -119.5528 -82.4136 -117.4325 11.7294 1.1116 -4.8704 -3.2043 9.8372 3.3256 5.1507 9.9129 29.9535 -36.8095 9.8218 -28.4386 -2.7624 0.0000 26.0360 2.9722 11.4782 -14.6236 33.1476 -0.0000 26.2537 34.6255 -30.7448 -10.4780 -67.6524 4.7841 34.6225 -2.4357 -0.0000 -2.4394 0.1707 -2.1444 4.5518 32.8623 0.0000 -24.3270 12.5531 16.5512 3.8325 3.9436 -0.0000 0.0000 -8.1037 12.0760 -14.2540 5.4211 -0.0000 -0.0000 11.7963 -10.8930 -10.4962 3.2355 0.0000 -0.0000 -10.2790 -8.8988 17.9819 10.2339 0.0000 0.0000
 4.4570 35.8702 -0.6506 -119.7595 -82.4067 -117.6493 11.7342 1.1153 -4.8761 -3.1507 9.8151 3.2885 5.1377 9.9134 29.9434 -36.7827 9.7936 -28.4506 -2.7339 0.0000 26.0935 2.9801 11.4306 -14.7183 33.1476 -0.0000 26.2537 34.6092 -30.7420 -10.4868 -67.6664 4.7993 34.5997 -2.4780 0.0000 -2.4439 0.1688 -2.0940 4.6088 32.8623 0.0000 -24.3270 12.5444 16.5627 3.8536 3.9482 -0.0000 -0.0000 -8.0925 12.1001 -14.2621 5.3984 0.0000 0.0000 11.7838 -10.8599 -10.4767 3.2568 0.0000 -0.0000 -10.2971 -8.9001 17.9539 10.2420 -0.0000 0.0000
 4.4560 35.8703 -0.6584 -120.0034 -82.3952 -117.9037 11.7347 1.1191 -4.8741 -3.0848 9.7816 3.2468 5.1337 9.8999 29.9304 -36.7616 9.7916 -28.4615 -2.7033 0.0000 26.0930 3.0005 11.5106 -14.7178 33.1476 -0.0000 26.2537 34.5580 -30.7279 -10.5268 -67.6614 4.7935 34.5802 -2.5024 0.0000 -2.4430 0.1660 -2.0663 4.5951 32.8623 0.0000 -24.3270 12.5328 16.5726 3.8733 3.9654 0.0000 -0.0000 -8.0978 12.1219 -14.2611 5.4191 -0.0000 0.0000 11.7543 -10.8581 -10.4625 3.2945 0.0000 -0.0000 -10.3179 -8.8625 17.9434 10.2284 0.0000 0.0000
 4.4552 35.8705 -0.6660 -120.1667 -82.3895 -118.0751 11.7371 1.1173 -4.8750 -3.0173 9.7318 3.2205 5.1448 9.9068 29.9196 -36.7584 9.7705 -28.4896 -2.6654 0.0000 26.0585 2.9989 11.5270 -14.6905 33.1476 -0.0000 26.2537 34.5481 -30.7211 -10.5356 -67.7043 4.7713 34.5565 -2.4960 0.0000 -2.4170 0.1700 -2.1083 4.6100 32.8623 0.0000 -24.3270 12.5119 16.5950 3.8943 3.9928 0.0000 -0.0000 -8.0967 12.1298 -14.2908 5.4077 0.0000 -0.0000 11.7298 -10.8341 -10.4531 3.3370 0.0000 0.0000 -10.3395 -8.8487 17.9627 10.2381 -0.0000 0.0000
 4.4531 35.8703 -0.6731 -120.2695 -82.3836 -118.1820 11.7412 1.1070 -4.8774 -2.9559 9.6879 3.1933 5.1438 9.9007 29.9166 -36.7842 9.7766 -28.5043 -2.6061 0.0000 26.0137 3.0267 11.5583 -14.7830 33.1476 -0.0000 26.2537 34.5086 -30.7110 -10.5671 -67.7279 4.7378 34.5386 -2.5132 0.0000 -2.3751 0.1678 -2.0915 4.5871 32.8623 0.0000 -24.3270 12.5095 16.5931 3.9092 3.9994 -0.0000 -0.0000 -8.0907 12.1409 -14.2897 5.3661 -0.0000 -0.0000 11.7133 -10.8433 -10.4433 3.3677 -0.0000 0.0000 -10.3625 -8.8212 17.9577 10.2333 0.0000 -0.0000
 4.4505 35.8700 -0.6811 -120.3484 -82.3757 -118.2670 11.7460 1.0808 -4.8770 -2.9058 9.6461 3.1774 5.1438 9.8802 29.9180 -36.7857 9.8514 -28.5144 -2.6227 0.0000 26.0564 3.0064 11.5151 -14.7400 33.1476 -0.0000 26.2537 34.4868 -30.7105 -10.5958 -67.7345 4.7606 34.5458 -2.5482 0.0000 -2.4273 0.1657 -2.0857 4.5441 32.8623 0.0000 -24.3270 12.5008 16.6069 3.9309 4.0219 -0.0000 -0.0000 -8.0957 12.1481 -14.3215 5.3900 -0.0000 0.0000 11.7133 -10.8278 -10.4298 3.3850 0.0000 -0.0000 -10.3850 -8.8222 17.9808 10.2495 0.0000 -0.0000
 4.4480 35.8698 -0.6878 -120.3640 -82.3648 -118.2890 11.7647 1.0582 -4.8741 -2.8714 9.6092 3.1547 5.1439 9.8597 29.9288 -36.8332 9.9346 -28.5328 -2.6052 0.0000 26.0323 3.0143 11.5080 -14.7857 33.1476 -0.0000 26.2537 34.4733 -30.7078 -10.6146 -67.7362 4.7713 34.5336 -2.5734 0.0000 -2.4501 0.1681 -2.0951 4.5895 32.8623 0.0000 -24.3270 12.5015 16.6198 3.9475 4.0359 0.0000 -0.0000 -8.0988 12.1477 -14.3027 5.3965 0.0000 0.0000 11.7191 -10.8368 -10.4166 3.3970 -0.0000 0.0000 -10.3948 -8.8052 17.9915 10.2512 -0.0000 0.0000
 4.4452 35.8700 -0.6946 -120.4287 -82.3508 -118.3585 11.7758 1.0384 -4.8715 -2.8194 9.5802 3.1310 5.1457 9.8593 29.9320 -36.8773 9.9730 -28.5620 -2.5775 0.0000 26.0131 3.0039 11.5266 -14.7144 33.1476 -0.0000 26.2537 34.4647 -30.7073 -10.6464 -67.7502 4.7684 34.5378 -2.6010 0.0000 -2.4565 0.1678 -2.0842 4.6042 32.8623 0.0000 -24.3270 12.5104 16.6381 3.9607 4.0397 -0.0000 -0.0000 -8.0908 12.1483 -14.3081 5.3854 0.0000 -0.0000 11.7433 -10.8136 -10.4009 3.3822 0.0000 -0.0000 -10.3939 -8.8164 17.9785 10.2631 0.0000 -0.0000
 4.4416 35.8697 -0.7014 -120.4303 -82.3341 -118.3754 11.7983 1.0334 -4.8550 -2.7741 9.5574 3.1021 5.1601 9.8494 29.9205 -36.9342 9.9968 -28.5721 -2.5285 0.0000 26.0274 2.9898 11.4625 -14.7256 33.1476 -0.0000 26.2537 34.4710 -30.7244 -10.6562 -67.7463 4.7887 34.5404 -2.6212 0.0000 -2.5052 0.1699 -2.1163 4.5910 32.8623 0.0000 -24.3270 12.5255 16.6597 3.9856 4.0365 -0.0000 -0.0000 -8.0881 12.1430 -14.2985 5.3509 -0.0000 0.0000 11.7745 -10.8238 -10.3776 3.3608 -0.0000 -0.0000 -10.3864 -8.7970 17.9885 10.2369 0.0000 -0.0000
 4.4385 35.8704 -0.7071 -120.4479 -82.3204 -118.4084 11.8122 1.0079 -4.8358 -2.7283 9.5439 3.0867 5.1592 9.8561 29.9093 -36.9701 9.9902 -28.5839 -2.4587 0.0000 26.0506 3.0027 11.4597 -14.7898 33.1476 -0.0000 26.2537 34.4426 -30.7057 -10.6967 -67.7046 4.7925 34.5274 -2.6259 0.0000 -2.5698 0.1682 -2.0838 4.6152 32.8623 0.0000 -24.3270 12.5374 16.6745 4.0081 4.0365 -0.0000 -0.0000 -8.0864 12.1422 -14.3244 5.3792 -0.0000 0.0000 11.8171 -10.8066 -10.3485 3.3189 -0.0000 0.0000 -10.3602 -8.8146 17.9852 10.2348 -0.0000 0.0000
 4.4345 35.8707 -0.7128 -120.4420 -82.3030 -118.4173 11.8278 0.9835 -4.8120 -2.6815 9.5210 3.0595 5.1485 9.8489 29.8959 -36.9760 9.9961 -28.6077 -2.4223 0.0000 26.0205 2.9934 11.4576 -14.7483 33.1476 -0.0000 26.2537 34.4362 -30.6992 -10.7205 -67.7248 4.7993 34.5172 -2.6531 0.0000 -2.5983 0.1728 -2.1282 4.6433 32.8623 0.0000 -24.3270 12.5548 16.7008 4.0294 4.0336 0.0000 0.0000 -8.0849 12.1383 -14.3103 5.3897 -0.0000 0.0000 11.8600 -10.8257 -10.3240 3.2752 -0.0000 0.0000 -10.3460 -8.7973 17.9930 10.2826 0.0000 -0.0000
 4.4302 35.8708 -0.7177 -120.4550 -82.2921 -118.4440 11.8343 0.9705 -4.7829 -2.6146 9.5196 3.0068 5.1450 9.8342 29.8828 -36.9923 10.0340 -28.6432 -2.4360 0.0000 26.0474 2.9798 11.4735 -14.6651 33.1476 -0.0000 26.2537 34.4143 -30.7041 -10.7522 -67.7579 4.7744 34.5109 -2.6730 0.0000 -2.5678 0.1727 -2.1024 4.6964 32.8623 0.0000 -24.3270 12.5738 16.7138 4.0460 4.0187 -0.0000 0.0000 -8.0788 12.1499 -14.3270 5.3729 -0.0000 -0.0000 11.9077 -10.8336 -10.2995 3.2161 -0.0000 -0.0000 -10.3174 -8.7882 18.0149 10.2371 0.0000 -0.0000
 4.4274 35.8715 -0.7219 -120.4612 -82.2885 -118.4538 11.8335 0.9467 -4.7717 -2.5572 9.5142 2.9851 5.1985 9.8562 29.8708 -37.0607 10.0462 -28.6777 -2.4205 0.0000 26.0686 2.9965 11.5320 -14.6733 33.1476 -0.0000 26.2537 34.3952 -30.6823 -10.7622 -67.7739 4.7788 34.4800 -2.7014 0.0000 -2.5762 0.1756 -2.1305 4.7139 32.8623 0.0000 -24.3270 12.5748 16.7197 4.0555 4.0247 -0.0000 0.0000 -8.0747 12.1458 -14.3098 5.3665 -0.0000 -0.0000 11.9404 -10.8670 -10.2868 3.1587 -0.0000 0.0000 -10.2935 -8.7508 18.0100 10.2605 -0.0000 0.0000
 4.4244 35.8718 -0.7258 -120.4789 -82.2980 -118.4796 11.8163 0.9186 -4.7463 -2.4952 9.5159 2.9723 5.2251 9.8675 29.8474 -37.0769 10.0271 -28.7127 -2.4078 0.0000 26.0725 2.9830 11.5537 -14.5838 33.1476 -0.0000 26.2537 34.3778 -30.6784 -10.7785 -67.7823 4.7966 34.4668 -2.7223 0.0000 -2.6203 0.1789 -2.1529 4.7523 32.8623 0.0000 -24.3270 12.5578 16.7269 4.0683 4.0385 0.0000 -0.0000 -8.0848 12.1481 -14.2794 5.3938 0.0000 0.0000 11.9628 -10.9024 -10.2681 3.1023 -0.0000 0.0000 -10.2712 -8.7257 18.0104 10.3095 -0.0000 0.0000
 4.4220 35.8720 -0.7286 -120.5854 -82.3063 -118.5866 11.7962 0.9160 -4.7331 -2.4346 9.5317 2.9440 5.2020 9.8274 29.8366 -37.0315 10.0249 -28.7323 -2.4195 0.0000 26.0412 2.9928 11.6154 -14.5564 33.1476 -0.0000 26.2537 34.3317 -30.6737 -10.7920 -67.8016 4.7851 34.4509 -2.7442 0.0000 -2.6025 0.1786 -2.1490 4.7516 32.8623 0.0000 -24.3270 12.5372 16.7609 4.0722 4.0522 -0.0000 -0.0000 -8.0807 12.1385 -14.2654 5.3531 -0.0000 0.0000 11.9853 -10.8889 -10.2571 3.0433 -0.0000 0.0000 -10.2497 -8.7460 18.0176 10.2733 -0.0000 0.0000
 4.4210 35.8717 -0.7316 -120.7393 -82.3303 -118.7411 11.7623 0.9050 -4.7169 -2.3863 9.5254 2.9351 5.1661 9.8009 29.8288 -36.9980 10.0279 -28.7568 -2.4332 0.0000 26.0593 2.9583 11.4734 -14.5635 33.1476 -0.0000 26.2537 34.3010 -30.6759 -10.7987 -67.8376 4.7850 34.4403 -2.7732 0.0000 -2.5794 0.1771 -2.1279 4.7587 32.8623 0.0000 -24.3270 12.4928 16.7756 4.0781 4.0759 0.0000 0.0000 -8.0907 12.1441 -14.2665 5.3670 0.0000 -0.0000 11.9752 -10.8949 -10.2497 3.0048 0.0000 -0.0000 -10.2392 -8.7322 18.0072 10.2642 -0.0000 -0.0000
 4.4204 35.8718 -0.7326 -120.8522 -82.3621 -118.8366 11.7235 0.8796 -4.7176 -2.3337 9.5578 2.9097 5.1647 9.7983 29.8236 -36.9845 10.0264 -28.7900 -2.4600 0.0000 26.0548 2.9427 11.4180 -14.5563 33.1476 -0.0000 26.2537 34.2685 -30.6774 -10.8162 -67.8690 4.7667 34.4430 -2.7873 0.0000 -2.5835 0.1761 -2.1184 4.7527 32.8623 0.0000 -24.3270 12.4565 16.7612 4.0607 4.0867 0.0000 0.0000 -8.0847 12.1599 -14.2354 5.3351 -0.0000 0.0000 11.9562 -10.9247 -10.2634 2.9665 0.0000 -0.0000 -10.2265 -8.7036 18.0191 10.2614 0.0000 0.0000
 4.4201 35.8717 -0.7333 -121.1190 -82.3885 -119.0986 11.6835 0.8887 -4.7025 -2.2992 9.5667 2.8978 5.1588 9.7953 29.8137 -37.0035 10.0245 -28.8199 -2.4704 0.0000 26.1383 2.9608 11.4082 -14.6542 33.1476 -0.0000 26.2537 34.2465 -30.6908 -10.8245 -67.8887 4.7628 34.4380 -2.8099 0.0000 -2.5625 0.1737 -2.0907 4.7493 32.8623 0.0000 -24.3270 12.4116 16.7787 4.0558 4.0993 0.0000 -0.0000 -8.0926 12.1680 -14.2167 5.3748 0.0000 0.0000 11.9238 -10.9156 -10.2676 2.9453 0.0000 0.0000 -10.2336 -8.6987 18.0307 10.3393 -0.0000 0.0000
 4.4198 35.8717 -0.7336 -121.2549 -82.4223 -119.2193 11.6508 0.8733 -4.6996 -2.2841 9.5913 2.9051 5.1698 9.8008 29.8037 -36.9934 9.9927 -28.8464 -2.4584 0.0000 26.1700 2.9833 11.3793 -14.7961 33.1476 -0.0000 26.2537 34.2392 -30.6957 -10.8202 -67.8973 4.7622 34.4229 -2.8080 0.0000 -2.5554 0.1747 -2.1020 4.7525 32.8623 0.0000 -24.3270 12.3720 16.7657 4.0429 4.1110 0.0000 -0.0000 -8.0901 12.1764 -14.2265 5.3493 -0.0000 0.0000 11.8994 -10.9143 -10.2796 2.9197 0.0000 -0.0000 -10.2307 -8.6977 18.0246 10.3296 0.0000 -0.0000
 4.4202 35.8714 -0.7332 -121.5096 -82.4471 -119.4632 11.6218 0.8660 -4.6906 -2.2883 9.6234 2.9201 5.1591 9.8149 29.7948 -36.9849 9.9577 -28.8759 -2.4397 0.0000 26.2062 2.9742 11.3220 -14.8232 33.1476 -0.0000 26.2537 34.2300 -30.6991 -10.8235 -67.9013 4.7776 34.4144 -2.8257 0.0000 -2.5250 0.1748 -2.0947 4.7722 32.8623 0.0000 -24.3270 12.3392 16.7666 4.0318 4.1118 0.0000 -0.0000 -8.0826 12.1801 -14.2281 5.3098 0.0000 -0.0000 11.8685 -10.8811 -10.2914 2.9059 0.0000 -0.0000 -10.2325 -8.7151 18.0356 10.3183 -0.0000 -0.0000
 4.4196 35.8710 -0.7325 -121.7132 -82.4635 -119.6623 11.6065 0.8634 -4.6714 -2.2973 9.6679 2.9172 5.1598 9.8057 29.7770 -36.9559 9.9332 -28.8788 -2.4118 0.0000 26.2308 2.9810 11.2604 -14.9324 33.1476 -0.0000 26.2537 34.2522 -30.7114 -10.8005 -67.9046 4.8367 34.3997 -2.8697 0.0000 -2.5492 0.1721 -2.0689 4.7557 32.8623 0.0000 -24.3270 12.3143 16.7908 4.0259 4.1135 0.0000 0.0000 -8.0889 12.1769 -14.2487 5.3533 0.0000 -0.0000 11.8393 -10.8647 -10.2976 2.9045 0.0000 0.0000 -10.2324 -8.7227 18.0371 10.3272 0.0000 -0.0000
